<svg width="49" height="49" viewBox="0 0 49 49" fill="none" xmlns="http://www.w3.org/2000/svg">
<path d="M47.2773 5.87263L39.3742 13.3312L46.9342 26.0558L47.2773 25.6292V5.87263ZM1.72266 5.98145V27.6001C2.15141 27.6558 2.66658 27.6865 3.18644 27.692C4.32243 27.7039 5.25879 27.6298 5.78478 27.5825L10.824 14.8315L1.72266 5.98145ZM38.9659 16.0169L38.2922 16.4529C38.2778 16.4622 37.779 16.7722 37.6325 16.8635L36.6175 17.4779L36.6319 17.4865C36.1616 17.7791 36.0309 17.8614 35.4972 18.1928C35.2263 18.3609 35.2196 18.3649 34.9627 18.5244C33.0209 17.4806 30.9139 16.6783 28.4551 16.0474C25.3628 16.9817 22.0868 18.3336 18.8157 19.602C20.1737 21.2373 21.683 21.7698 23.2032 21.7888C24.9661 21.8108 26.7682 21.0443 28.0092 20.1854L28.7174 19.6954L29.4281 20.7223L40.4773 28.6973L44.7947 25.8274L38.9659 16.0169ZM12.1042 16.2791L7.76248 27.2646L9.35594 28.4899L12.3031 25.1493L12.5392 24.8819L12.8952 24.8597C13.0388 24.8507 13.1804 24.8465 13.3202 24.8472C14.2975 24.8535 15.1712 25.1071 15.8266 25.6856C16.312 26.1136 16.6347 26.6834 16.8219 27.3431L17.0401 27.3296C18.1881 27.2578 19.2224 27.4946 19.9715 28.1555C20.7206 28.8165 21.0845 29.8133 21.1563 30.9615L21.163 31.0649C21.7794 31.1812 22.3311 31.4239 22.7797 31.8198C23.5289 32.4807 23.8928 33.4773 23.9645 34.6255L23.9834 34.9241C24.0446 34.9435 24.1052 34.9645 24.1652 34.9871L24.3598 34.714L24.8833 33.9792L25.1525 33.6012L25.854 34.101L31.5415 38.1527C32.1601 38.0002 32.5288 37.7627 32.7339 37.4746C32.9394 37.1863 33.0433 36.7597 32.985 36.1245L26.1654 31.2408L25.4651 30.7393L25.9618 30.0458L26.6001 29.1495L27.3016 29.6494L34.9899 35.1261C35.6086 34.9737 35.9776 34.7362 36.1827 34.4481C36.3879 34.16 36.4918 33.7344 36.4339 33.1004L27.5911 26.827L26.8887 26.3284L27.8853 24.9235L28.5881 25.4219L37.4324 31.6967C38.0516 31.5441 38.4207 31.3067 38.6261 31.0183C38.8316 30.7298 38.9355 30.3029 38.8768 29.6665L28.3074 22.038C26.9048 22.8695 25.1107 23.5356 23.1818 23.5115C20.9244 23.4833 18.5098 22.4046 16.7336 19.6786C16.6633 19.5708 16.6181 19.4486 16.6013 19.321C16.5844 19.1935 16.5964 19.0638 16.6363 18.9414C16.6761 18.8191 16.7429 18.7072 16.8317 18.6141C16.9204 18.5209 17.029 18.4488 17.1492 18.4031C18.3947 17.9299 19.6531 17.4298 20.9145 16.9337L12.1044 16.2797L12.1042 16.2791ZM13.339 26.5787L8.78698 31.738C8.8757 32.3836 9.07792 32.7852 9.35039 33.0256C9.62285 33.266 10.0466 33.4166 10.6983 33.4241L15.2502 28.265C15.1615 27.6193 14.9593 27.2175 14.6868 26.9771C14.4143 26.7367 13.9906 26.5862 13.3389 26.5788L13.339 26.5787ZM17.4837 29.0488L12.3432 34.8752C12.4318 35.5209 12.6342 35.9226 12.9065 36.1631C13.1793 36.4033 13.6028 36.5538 14.2545 36.5612L19.395 30.735C19.3064 30.0892 19.1041 29.6876 18.8316 29.4471C18.5591 29.2066 18.1356 29.0561 17.4838 29.0486L17.4837 29.0488ZM20.2916 32.7129L15.74 37.8722C15.8287 38.5178 16.0309 38.9195 16.3034 39.16C16.576 39.4004 16.9997 39.5508 17.6513 39.5583L22.2031 34.3995C22.1144 33.7535 21.9122 33.3519 21.6397 33.1114C21.3673 32.871 20.9436 32.7206 20.2918 32.7131L20.2916 32.7129ZM22.6557 36.4584L18.943 40.6961C19.0315 41.3431 19.2337 41.7452 19.5065 41.9858C19.7788 42.226 20.202 42.3765 20.8528 42.3842L24.5657 38.1465C24.477 37.4997 24.2747 37.0976 24.002 36.8568C23.7298 36.6166 23.3066 36.4663 22.6558 36.4585L22.6557 36.4584ZM26.038 36.9168C26.2002 37.359 26.2939 37.849 26.3265 38.3707L26.3487 38.7252L25.5566 39.6294L28.1141 41.4513C28.7328 41.2988 29.1014 41.0613 29.3066 40.7732C29.5119 40.4851 29.616 40.0588 29.5581 39.4244L26.0381 36.917L26.038 36.9168Z" fill="#1E305E"/>
</svg>
